<svg xmlns="http://www.w3.org/2000/svg" xml:space="preserve" style="fill-rule:evenodd;clip-rule:evenodd;stroke-linejoin:round;stroke-miterlimit:2" viewBox="0 0 192 192"><path fill="none" d="M0 0h192v192H0z" style="fill:#00b762;fill-opacity:0"/><clipPath id="a"><path d="M0 0h192v192H0z"/></clipPath><g clip-path="url(#a)"><circle cx="96" cy="96" r="96" style="fill:#fff"/><path d="M89.333 129.4H76v-13.333H62.667V102.6H49.333V89.267H36V129.4H22.667V62.6H36v13.333h13.333v13.334h13.334V102.6H76v-40h13.333v66.8Zm80 0H156v-13.333h-13.333V102.6H116v26.8h-13.333V62.6H116v26.667h26.667V75.933H156V62.6h13.333v13.333H156v13.334h-13.333V102.6H156v13.467h13.333V129.4Z" style="fill:#333;fill-rule:nonzero"/></g></svg>